<svg id="Layer_2" data-name="Layer 2" xmlns="http://www.w3.org/2000/svg" viewBox="0 0 109.8 138.63"><defs><style>.cls-1{fill-rule:evenodd;}</style></defs><path class="cls-1" d="M495.08,210.23c-.66-2.53-1.16-5.08-1.8-7.6-.31-1.26-.54-2.55-.88-3.8l-1-3.78c-.28-1.27-.68-2.5-1.05-3.74s-.72-2.49-1.12-3.72-.89-2.42-1.33-3.62-.91-2.39-1.47-3.54A111.93,111.93,0,0,0,474,159.32,106,106,0,0,0,457.42,142a115.3,115.3,0,0,0-40.48-21.61,64.26,64.26,0,0,0-7.71-1.88c-2.31-.35-2.38.22-1.6.89a12.75,12.75,0,0,0,3.31,1.92c6.39,2.28,12.87,4.87,19.05,7.66a159.16,159.16,0,0,1,17.06,9,87,87,0,0,1,24,21.87,103.91,103.91,0,0,1,8.74,13.68,129.24,129.24,0,0,1,6.55,14.76,139.69,139.69,0,0,1,4.61,15.37c.69,2.57,1.14,5.2,1.71,7.8s.95,5.23,1.29,7.87A243.69,243.69,0,0,1,496.26,251c0,1.48-.08,7.81,1,3.86a38.62,38.62,0,0,0,1-7.95c.12-2.81,0-5.33,0-6.24-.11-4.93-.32-10-.77-15.08A109.94,109.94,0,0,0,495.08,210.23Zm.13,3.75c.21-.23,1,1.11.7,1.4S494.93,214.27,495.21,214Z" transform="translate(-407.18 -118.39)"/><path class="cls-1" d="M487.25,220.57c.15,0,.45-.21.51-.08,2.37,5,2.73,10.54,4.29,15.78a129.61,129.61,0,0,0,5.24,15.52v0l.07.15.09-.12c4.13-5.25,9.31-10.06,12.77-16.74,2-3.8,2.64-7.32,5.72-10.06.21-.2,1.37-.76.94.25-2.11,5-3.53,11.76-6.79,15.79q-5.3,6.56-10.59,12.42L496.36,257l-1.5-4.19c-3.39-9.43-6.24-18.67-9-28.31-.17-.55-1.71-3.19,1.22-4.29C487.12,220.21,487.19,220.56,487.25,220.57Z" transform="translate(-407.18 -118.39)"/></svg>